<svg width="26" height="25" viewBox="0 0 26 25" fill="none" xmlns="http://www.w3.org/2000/svg">
<path d="M12.8103 0C11.1281 0 9.46225 0.331349 7.90803 0.975129C6.35381 1.61891 4.94161 2.56251 3.75206 3.75206C1.34966 6.15447 0 9.41282 0 12.8103C0 18.4725 3.67657 23.2764 8.76227 24.9802C9.40279 25.0826 9.60775 24.6855 9.60775 24.3396V22.1747C6.05929 22.9433 5.30348 20.4581 5.30348 20.4581C4.7142 18.9721 3.88153 18.575 3.88153 18.575C2.71579 17.7807 3.9712 17.8064 3.9712 17.8064C5.25224 17.896 5.93119 19.1258 5.93119 19.1258C7.04569 21.073 8.92881 20.4965 9.65899 20.1891C9.77429 19.3564 10.1074 18.7928 10.466 18.4725C7.62215 18.1522 4.63734 17.0506 4.63734 12.1698C4.63734 10.7479 5.12414 9.60775 5.95681 8.69822C5.8287 8.37796 5.38034 7.04569 6.08491 5.31629C6.08491 5.31629 7.16098 4.97041 9.60775 6.62294C10.6198 6.34112 11.7215 6.2002 12.8103 6.2002C13.8992 6.2002 15.0009 6.34112 16.0129 6.62294C18.4597 4.97041 19.5358 5.31629 19.5358 5.31629C20.2403 7.04569 19.792 8.37796 19.6639 8.69822C20.4965 9.60775 20.9833 10.7479 20.9833 12.1698C20.9833 17.0634 17.9857 18.1394 15.129 18.4597C15.5902 18.8568 16.0129 19.6382 16.0129 20.8296V24.3396C16.0129 24.6855 16.2179 25.0955 16.8712 24.9802C21.9569 23.2636 25.6207 18.4725 25.6207 12.8103C25.6207 11.1281 25.2893 9.46225 24.6455 7.90803C24.0018 6.35381 23.0582 4.94161 21.8686 3.75206C20.6791 2.56251 19.2669 1.61891 17.7126 0.975129C16.1584 0.331349 14.4926 0 12.8103 0Z" fill="#717A7D"/>
</svg>
