<svg width="25" height="25" viewBox="0 0 25 25" fill="none" xmlns="http://www.w3.org/2000/svg">
<path d="M0 3.125C0 3.9538 0.32924 4.74866 0.915291 5.33471C1.50134 5.92076 2.2962 6.25 3.125 6.25C3.9538 6.25 4.74866 5.92076 5.33471 5.33471C5.92076 4.74866 6.25 3.9538 6.25 3.125C6.25 2.2962 5.92076 1.50134 5.33471 0.915291C4.74866 0.32924 3.9538 0 3.125 0C2.2962 0 1.50134 0.32924 0.915291 0.915291C0.32924 1.50134 0 2.2962 0 3.125ZM9.375 21.875C9.375 22.7038 9.70424 23.4987 10.2903 24.0847C10.8763 24.6708 11.6712 25 12.5 25C13.3288 25 14.1237 24.6708 14.7097 24.0847C15.2958 23.4987 15.625 22.7038 15.625 21.875C15.625 21.0462 15.2958 20.2513 14.7097 19.6653C14.1237 19.0792 13.3288 18.75 12.5 18.75C11.6712 18.75 10.8763 19.0792 10.2903 19.6653C9.70424 20.2513 9.375 21.0462 9.375 21.875ZM9.375 12.5C9.375 13.3288 9.70424 14.1237 10.2903 14.7097C10.8763 15.2958 11.6712 15.625 12.5 15.625C13.3288 15.625 14.1237 15.2958 14.7097 14.7097C15.2958 14.1237 15.625 13.3288 15.625 12.5C15.625 11.6712 15.2958 10.8763 14.7097 10.2903C14.1237 9.70424 13.3288 9.375 12.5 9.375C11.6712 9.375 10.8763 9.70424 10.2903 10.2903C9.70424 10.8763 9.375 11.6712 9.375 12.5ZM9.375 3.125C9.375 3.9538 9.70424 4.74866 10.2903 5.33471C10.8763 5.92076 11.6712 6.25 12.5 6.25C13.3288 6.25 14.1237 5.92076 14.7097 5.33471C15.2958 4.74866 15.625 3.9538 15.625 3.125C15.625 2.2962 15.2958 1.50134 14.7097 0.915291C14.1237 0.32924 13.3288 0 12.5 0C11.6712 0 10.8763 0.32924 10.2903 0.915291C9.70424 1.50134 9.375 2.2962 9.375 3.125ZM18.75 3.125C18.75 3.9538 19.0792 4.74866 19.6653 5.33471C20.2513 5.92076 21.0462 6.25 21.875 6.25C22.7038 6.25 23.4987 5.92076 24.0847 5.33471C24.6708 4.74866 25 3.9538 25 3.125C25 2.2962 24.6708 1.50134 24.0847 0.915291C23.4987 0.32924 22.7038 0 21.875 0C21.0462 0 20.2513 0.32924 19.6653 0.915291C19.0792 1.50134 18.75 2.2962 18.75 3.125Z" fill="#717A7D"/>
</svg>
